<svg width="197" height="36" viewBox="0 0 197 36" fill="none" xmlns="http://www.w3.org/2000/svg">
<path d="M20.184 7.736H6.744V15.704H19.8V22.04H6.744V35H0.12V1.4H20.184V7.736ZM45.1706 32.024C42.7066 34.456 39.6986 35.672 36.1466 35.672C32.5946 35.672 29.5866 34.456 27.1226 32.024C24.6906 29.56 23.4746 26.552 23.4746 23C23.4746 19.448 24.6906 16.456 27.1226 14.024C29.5866 11.56 32.5946 10.328 36.1466 10.328C39.6986 10.328 42.7066 11.56 45.1706 14.024C47.6346 16.456 48.8666 19.448 48.8666 23C48.8666 26.552 47.6346 29.56 45.1706 32.024ZM31.4906 27.752C32.7386 29 34.2906 29.624 36.1466 29.624C38.0026 29.624 39.5546 29 40.8026 27.752C42.0506 26.504 42.6746 24.92 42.6746 23C42.6746 21.08 42.0506 19.496 40.8026 18.248C39.5546 17 38.0026 16.376 36.1466 16.376C34.2906 16.376 32.7386 17 31.4906 18.248C30.2746 19.496 29.6666 21.08 29.6666 23C29.6666 24.92 30.2746 26.504 31.4906 27.752ZM59.4146 15.128C59.9906 13.592 60.9346 12.44 62.2466 11.672C63.5906 10.904 65.0786 10.52 66.7106 10.52V17.432C64.8226 17.208 63.1266 17.592 61.6226 18.584C60.1506 19.576 59.4146 21.224 59.4146 23.528V35H53.2226V11H59.4146V15.128ZM74.6734 25.544C75.5054 28.552 77.7614 30.056 81.4414 30.056C83.8094 30.056 85.6014 29.256 86.8174 27.656L91.8094 30.536C89.4414 33.96 85.9534 35.672 81.3454 35.672C77.3774 35.672 74.1934 34.472 71.7934 32.072C69.3934 29.672 68.1934 26.648 68.1934 23C68.1934 19.384 69.3774 16.376 71.7454 13.976C74.1134 11.544 77.1534 10.328 80.8654 10.328C84.3854 10.328 87.2814 11.544 89.5534 13.976C91.8574 16.408 93.0094 19.416 93.0094 23C93.0094 23.8 92.9294 24.648 92.7694 25.544H74.6734ZM74.5774 20.744H86.8174C86.4654 19.112 85.7294 17.896 84.6094 17.096C83.5214 16.296 82.2734 15.896 80.8654 15.896C79.2014 15.896 77.8254 16.328 76.7374 17.192C75.6494 18.024 74.9294 19.208 74.5774 20.744Z" fill="white"/>
<path d="M113.556 35.672C108.5 35.672 104.324 33.992 101.028 30.632C97.732 27.272 96.084 23.128 96.084 18.2C96.084 13.24 97.732 9.096 101.028 5.768C104.324 2.408 108.5 0.727998 113.556 0.727998C116.596 0.727998 119.396 1.448 121.956 2.888C124.548 4.296 126.564 6.216 128.004 8.648L122.292 11.96C121.46 10.456 120.276 9.288 118.74 8.456C117.204 7.592 115.476 7.16 113.556 7.16C110.292 7.16 107.652 8.184 105.636 10.232C103.652 12.28 102.66 14.936 102.66 18.2C102.66 21.432 103.652 24.072 105.636 26.12C107.652 28.168 110.292 29.192 113.556 29.192C115.476 29.192 117.204 28.776 118.74 27.944C120.308 27.08 121.492 25.912 122.292 24.44L128.004 27.752C126.564 30.184 124.564 32.12 122.004 33.56C119.444 34.968 116.628 35.672 113.556 35.672ZM150.166 11H156.358V35H150.166V32.168C148.31 34.504 145.702 35.672 142.342 35.672C139.142 35.672 136.39 34.456 134.086 32.024C131.814 29.56 130.678 26.552 130.678 23C130.678 19.448 131.814 16.456 134.086 14.024C136.39 11.56 139.142 10.328 142.342 10.328C145.702 10.328 148.31 11.496 150.166 13.832V11ZM138.742 27.896C139.99 29.144 141.574 29.768 143.494 29.768C145.414 29.768 146.998 29.144 148.246 27.896C149.526 26.616 150.166 24.984 150.166 23C150.166 21.016 149.526 19.4 148.246 18.152C146.998 16.872 145.414 16.232 143.494 16.232C141.574 16.232 139.99 16.872 138.742 18.152C137.494 19.4 136.87 21.016 136.87 23C136.87 24.984 137.494 26.616 138.742 27.896ZM167.497 17.816C167.497 18.456 167.913 18.984 168.745 19.4C169.609 19.784 170.649 20.136 171.865 20.456C173.081 20.744 174.297 21.128 175.513 21.608C176.729 22.056 177.753 22.824 178.585 23.912C179.449 25 179.881 26.36 179.881 27.992C179.881 30.456 178.953 32.36 177.097 33.704C175.273 35.016 172.985 35.672 170.233 35.672C165.305 35.672 161.945 33.768 160.153 29.96L165.529 26.936C166.233 29.016 167.801 30.056 170.233 30.056C172.441 30.056 173.545 29.368 173.545 27.992C173.545 27.352 173.113 26.84 172.249 26.456C171.417 26.04 170.393 25.672 169.177 25.352C167.961 25.032 166.745 24.632 165.529 24.152C164.313 23.672 163.273 22.92 162.409 21.896C161.577 20.84 161.161 19.528 161.161 17.96C161.161 15.592 162.025 13.736 163.753 12.392C165.513 11.016 167.689 10.328 170.281 10.328C172.233 10.328 174.009 10.776 175.609 11.672C177.209 12.536 178.473 13.784 179.401 15.416L174.121 18.296C173.353 16.664 172.073 15.848 170.281 15.848C169.481 15.848 168.809 16.024 168.265 16.376C167.753 16.728 167.497 17.208 167.497 17.816ZM196.888 16.952H191.464V26.936C191.464 27.768 191.672 28.376 192.088 28.76C192.504 29.144 193.112 29.368 193.912 29.432C194.712 29.464 195.704 29.448 196.888 29.384V35C192.632 35.48 189.624 35.08 187.864 33.8C186.136 32.52 185.272 30.232 185.272 26.936V16.952H181.096V11H185.272V6.152L191.464 4.28V11H196.888V16.952Z" fill="#0095E2"/>
</svg>
