<svg width="49" height="36" viewBox="0 0 49 36" fill="none" xmlns="http://www.w3.org/2000/svg">
<path d="M14.744 6.68C11.352 6.424 9.656 7.784 9.656 10.76V11H14.744V16.952H9.656V35H3.464V16.952H0.00800008V11H3.464V10.76C3.464 7.368 4.408 4.792 6.296 3.032C8.184 1.272 11 0.503999 14.744 0.727998V6.68Z" fill="white"/>
<path d="M34.3216 35.672C29.2656 35.672 25.0896 33.992 21.7936 30.632C18.4976 27.272 16.8496 23.128 16.8496 18.2C16.8496 13.24 18.4976 9.096 21.7936 5.768C25.0896 2.408 29.2656 0.727998 34.3216 0.727998C37.3616 0.727998 40.1616 1.448 42.7216 2.888C45.3136 4.296 47.3296 6.216 48.7696 8.648L43.0576 11.96C42.2256 10.456 41.0416 9.288 39.5056 8.456C37.9696 7.592 36.2416 7.16 34.3216 7.16C31.0576 7.16 28.4176 8.184 26.4016 10.232C24.4176 12.28 23.4256 14.936 23.4256 18.2C23.4256 21.432 24.4176 24.072 26.4016 26.12C28.4176 28.168 31.0576 29.192 34.3216 29.192C36.2416 29.192 37.9696 28.776 39.5056 27.944C41.0736 27.08 42.2576 25.912 43.0576 24.44L48.7696 27.752C47.3296 30.184 45.3296 32.12 42.7696 33.56C40.2096 34.968 37.3936 35.672 34.3216 35.672Z" fill="#0095E2"/>
</svg>
